<?xml version="1.0" encoding="UTF-8" standalone="no"?>
<svg width="61px" height="60px" viewBox="0 0 61 60" version="1.1" xmlns="http://www.w3.org/2000/svg" xmlns:xlink="http://www.w3.org/1999/xlink" xmlns:sketch="http://www.bohemiancoding.com/sketch/ns">
    <!-- Generator: Sketch 3.3 (11970) - http://www.bohemiancoding.com/sketch -->
    <title>Fill 128 Copy</title>
    <desc>Created with Sketch.</desc>
    <defs></defs>
    <g id="Welcome" stroke="none" stroke-width="1" fill="none" fill-rule="evenodd" sketch:type="MSPage">
        <g id="Desktop-HD" sketch:type="MSArtboardGroup" transform="translate(-383.000000, -2913.000000)" fill="#181818">
            <path d="M442.737577,2940.4398 C442.162152,2938.31601 441.299014,2936.42179 440.167518,2934.81115 C439.988181,2934.51038 439.553387,2934.12737 438.510913,2934.12737 C438.209009,2934.12737 437.860658,2934.16542 437.499404,2934.22435 C437.028485,2922.03038 424.58202,2913 413.423165,2913 C402.270761,2913 389.832038,2922.01811 389.348216,2934.20102 C389.03599,2934.15683 388.740537,2934.12737 388.48895,2934.12737 C387.451637,2934.12737 387.019423,2934.52143 386.842667,2934.79642 C385.706009,2936.4132 384.837711,2938.3111 384.259706,2940.44102 C383.591388,2942.93187 383.361734,2945.57125 383.579776,2948.2843 C383.791367,2951.00102 384.432592,2953.57903 385.486677,2955.94465 C386.384649,2957.96409 387.53937,2959.71468 388.917293,2961.14731 C389.09921,2961.36215 389.3766,2961.49228 389.672054,2961.49228 C389.697858,2961.49228 389.722371,2961.49105 389.748175,2961.48982 L391.252537,2961.38302 C391.960851,2961.33146 392.518214,2961.00859 392.826569,2960.51386 C393.878074,2960.48931 394.813462,2960.10875 395.467588,2959.43601 C396.177193,2958.70803 396.517803,2957.68542 396.42878,2956.55724 L395.840453,2949.11049 C395.428883,2943.89678 395.00699,2938.55171 394.920548,2937.42598 C394.755403,2935.35621 393.359418,2934.23908 391.288662,2934.47969 C391.595728,2923.21136 403.101644,2914.84143 413.423165,2914.84143 C423.736946,2914.84143 435.23125,2923.20031 435.556378,2934.45391 C433.551422,2934.27959 432.238009,2935.40655 432.079315,2937.42721 C431.946426,2939.13606 431.038132,2950.63887 430.569793,2956.55724 C430.48206,2957.68665 430.82396,2958.71049 431.532275,2959.43724 C432.187691,2960.10875 433.120499,2960.48931 434.172004,2960.51386 C434.409399,2960.8932 434.793876,2961.16696 435.280277,2961.30077 C433.148883,2963.34721 430.018882,2965.85893 426.322487,2967.03744 C425.606431,2965.71652 424.17303,2964.80194 422.506104,2964.80194 C420.130864,2964.80194 418.198159,2966.64092 418.198159,2968.90097 C418.198159,2971.16102 420.130864,2973 422.506104,2973 C424.882634,2973 426.815339,2971.16102 426.815339,2968.90097 C426.815339,2968.87519 426.807598,2968.85064 426.806308,2968.82486 C432.785049,2966.96747 437.290394,2962.0398 439.019248,2960.14189 C439.106981,2960.04737 439.16762,2959.94056 439.206326,2959.82885 C440.095267,2958.6798 440.873252,2957.38465 441.513186,2955.94465 C442.564691,2953.58394 443.205916,2951.00593 443.420087,2948.28675 C443.638129,2945.56634 443.409766,2942.92696 442.737577,2940.4398 L442.737577,2940.4398 Z M391.861507,2936.26834 C392.22018,2936.26834 392.887208,2936.26834 392.990423,2937.56348 C393.076866,2938.68552 393.498758,2944.03304 393.910329,2949.24798 L394.497365,2956.69473 C394.546393,2957.30854 394.387699,2957.83642 394.048379,2958.18506 C393.736153,2958.50425 393.274265,2958.67488 392.713032,2958.67488 C392.598205,2958.67488 392.480798,2958.66752 392.414998,2958.66138 C392.386614,2958.65647 392.240823,2958.63683 392.211148,2958.63437 C391.94924,2958.6135 391.649916,2958.69453 391.449936,2958.86885 C391.248666,2959.04317 391.111906,2959.28747 391.111906,2959.5465 L390.079754,2959.62015 C388.96632,2958.39499 388.021901,2956.91939 387.26843,2955.2265 C386.296917,2953.04501 385.704719,2950.66465 385.5099,2948.1468 C385.311211,2945.66701 385.526673,2943.1602 386.134353,2940.89893 C386.638817,2939.04031 387.381966,2937.38425 388.345739,2935.97371 C388.523785,2935.95775 388.887618,2935.98107 389.361118,2936.06578 C389.567549,2936.43775 390.022986,2936.6354 390.462941,2936.52368 L391.083522,2936.37514 C391.373815,2936.30394 391.635724,2936.26834 391.861507,2936.26834 L391.861507,2936.26834 Z M422.506104,2971.15857 C421.197851,2971.15857 420.133444,2970.14578 420.133444,2968.90097 C420.133444,2967.65616 421.197851,2966.64338 422.506104,2966.64338 C423.815647,2966.64338 424.880054,2967.65616 424.880054,2968.90097 C424.880054,2970.14578 423.815647,2971.15857 422.506104,2971.15857 L422.506104,2971.15857 Z M441.489963,2948.14803 C441.293854,2950.66957 440.700366,2953.04992 439.732724,2955.2265 C438.977962,2956.92061 438.033543,2958.39867 436.917529,2959.62138 L435.84151,2959.55141 C435.84151,2959.29238 435.726683,2959.04563 435.525413,2958.87008 C435.347367,2958.7154 435.115133,2958.63069 434.875157,2958.63069 C434.845483,2958.63069 434.814519,2958.63192 434.784844,2958.6356 C434.775813,2958.6356 434.650664,2958.65279 434.641633,2958.65279 C433.924287,2958.73504 433.326929,2958.57054 432.951484,2958.18506 C432.610874,2957.83642 432.45089,2957.30854 432.499917,2956.69473 C432.969547,2950.77637 433.87784,2939.27233 434.00944,2937.56471 C434.112655,2936.26834 434.779683,2936.26834 435.137066,2936.26834 C435.36414,2936.26834 435.626048,2936.30394 435.921502,2936.37637 L436.539503,2936.52368 C436.976877,2936.63171 437.432314,2936.43652 437.640035,2936.06578 C438.07741,2935.98476 438.470918,2935.95898 438.655415,2935.97371 C439.617897,2937.38179 440.358466,2939.03908 440.86293,2940.89893 C441.47319,2943.15652 441.689942,2945.66332 441.489963,2948.14803 L441.489963,2948.14803 Z" id="Fill-128-Copy" sketch:type="MSShapeGroup"></path>
        </g>
    </g>
</svg>