<?xml version="1.0" encoding="UTF-8" standalone="no"?>
<svg width="59px" height="49px" viewBox="0 0 59 49" version="1.1" xmlns="http://www.w3.org/2000/svg" xmlns:xlink="http://www.w3.org/1999/xlink" xmlns:sketch="http://www.bohemiancoding.com/sketch/ns">
    <!-- Generator: Sketch 3.3 (11970) - http://www.bohemiancoding.com/sketch -->
    <title>Fill 53</title>
    <desc>Created with Sketch.</desc>
    <defs></defs>
    <g id="Welcome" stroke="none" stroke-width="1" fill="none" fill-rule="evenodd" sketch:type="MSPage">
        <g id="Desktop-HD" sketch:type="MSArtboardGroup" transform="translate(-1097.000000, -2940.000000)" fill="#0A0B09">
            <g id="etapy" sketch:type="MSLayerGroup" transform="translate(151.000000, 2797.000000)">
                <path d="M1001.224,173.421491 L992,173.421491 C991.445,173.421491 991,173.868491 991,174.421491 C991,174.974491 991.445,175.421491 992,175.421491 L1000.876,175.421491 C1001.007,176.075491 1000.897,176.982491 1000.543,177.909491 C1000.037,179.240491 998.939,180.838491 997.376,181.421491 L992,181.421491 C991.445,181.421491 991,181.868491 991,182.421491 C991,182.974491 991.445,183.421491 992,183.421491 L996.755,183.421491 C996.935,184.756491 996.714,186.477491 995.762,187.735491 C994.914,188.853491 993.609,189.421491 991.883,189.421491 L971.414,189.421491 C970.34,189.421491 969.805,189.290491 969.438,188.937491 C969.184,188.691491 968.906,188.345491 968.609,187.980491 C967.629,186.780491 966.523,185.421491 965.063,185.421491 L964,185.421491 L964,167.419491 C966.01,167.408491 967.902,166.509491 969.219,164.923491 C969.363,164.747491 969.469,164.622491 969.605,164.515491 C973.637,161.343491 976.27,157.872491 977.66,153.905491 C977.887,153.247491 978,152.519491 978,151.677491 L978,146.153491 C979.336,144.968491 981.023,144.659491 982.297,145.409491 C984.305,146.585491 985.645,150.548491 983.395,158.136491 C983.305,158.439491 983.363,158.767491 983.551,159.019491 C983.738,159.273491 984.035,159.421491 984.352,159.421491 L997.883,159.421491 C1001.07,159.421491 1002.203,160.360491 1002.203,163.009491 C1002.203,165.421491 1002.059,165.421491 1001.574,165.421491 L992,165.421491 C991.445,165.421491 991,165.868491 991,166.421491 C991,166.974491 991.445,167.421491 992,167.421491 L1001.331,167.421491 C1001.973,167.779491 1002.43,168.650491 1002.539,169.757491 C1002.649,170.907491 1002.354,172.507491 1001.224,173.421491 L1001.224,173.421491 Z M948,165.421491 L962,165.421491 L962,187.421491 L948,187.421491 L948,165.421491 Z M1004.527,169.564491 C1004.418,168.423491 1004.043,167.431491 1003.469,166.685491 C1004.203,165.827491 1004.203,164.360491 1004.203,163.009491 C1004.203,158.001491 1000.594,157.421491 997.883,157.421491 L985.668,157.421491 C987.402,150.671491 986.551,145.585491 983.309,143.685491 C981.133,142.407491 978.313,142.950491 976.281,145.030491 C976.102,145.216491 976,145.466491 976,145.728491 L976,151.677491 C976,152.290491 975.926,152.806491 975.77,153.247491 C974.512,156.841491 972.09,160.013491 968.371,162.939491 C968.066,163.179491 967.855,163.431491 967.66,163.669491 C966.746,164.774491 965.413,165.408491 964,165.419491 L964,164.421491 C964,163.868491 963.551,163.421491 963,163.421491 L947,163.421491 C946.445,163.421491 946,163.868491 946,164.421491 L946,188.421491 C946,188.974491 946.445,189.421491 947,189.421491 L963,189.421491 C963.551,189.421491 964,188.974491 964,188.421491 L964,187.421491 L965.063,187.421491 C965.574,187.421491 966.504,188.562491 967.059,189.243491 C967.41,189.679491 967.746,190.085491 968.051,190.378491 C969.004,191.294491 970.23,191.421491 971.414,191.421491 L991.883,191.421491 C994.852,191.421491 996.496,190.073491 997.355,188.942491 C998.673,187.202491 998.985,184.907491 998.73,183.093491 C998.768,183.052491 998.792,183.002491 998.823,182.956491 C1000.603,181.982491 1001.828,180.159491 1002.414,178.622491 C1002.921,177.286491 1003.044,176.016491 1002.816,174.965491 C1002.907,174.831491 1002.966,174.680491 1002.982,174.510491 C1004.114,173.287491 1004.711,171.462491 1004.527,169.564491 L1004.527,169.564491 Z" id="Fill-53" sketch:type="MSShapeGroup"></path>
            </g>
        </g>
    </g>
</svg>