<?xml version="1.0" encoding="UTF-8" standalone="no"?>
<svg width="42px" height="60px" viewBox="0 0 42 60" version="1.1" xmlns="http://www.w3.org/2000/svg" xmlns:xlink="http://www.w3.org/1999/xlink" xmlns:sketch="http://www.bohemiancoding.com/sketch/ns">
    <!-- Generator: Sketch 3.3 (11970) - http://www.bohemiancoding.com/sketch -->
    <title>Fill 40</title>
    <desc>Created with Sketch.</desc>
    <defs></defs>
    <g id="Welcome" stroke="none" stroke-width="1" fill="none" fill-rule="evenodd" sketch:type="MSPage">
        <g id="Desktop-HD" sketch:type="MSArtboardGroup" transform="translate(-391.000000, -2934.000000)" fill="#0A0B09">
            <g id="etapy" sketch:type="MSLayerGroup" transform="translate(151.000000, 2797.000000)">
                <path d="M276.25,152.408 C274.61,146.781 270.67,143.287 264.86,142.303 C264.31,142.203 263.79,142.578 263.7,143.123 C263.61,143.666 263.98,144.184 264.52,144.275 C269.6,145.135 272.9,148.059 274.33,152.967 C274.46,153.404 274.86,153.688 275.29,153.688 C275.38,153.688 275.48,153.676 275.57,153.648 C276.1,153.494 276.4,152.938 276.25,152.408 L276.25,152.408 Z M267,162.877 L267,159.445 C267,158.115 267.53,156.695 269.14,156.695 C270.76,156.695 271.57,158.078 271.57,159.445 C271.57,160.979 270.17,163.031 268.7,163.031 C268.08,163.031 267,162.979 267,162.877 L267,162.877 Z M271.46,173.445 C271.14,173.621 271,173.957 271,174.324 L271,175.023 C270.96,175.018 270.93,175 270.89,175 L267,175 L267,164.904 C267,164.988 268.11,165.031 268.72,165.031 C271.43,165.031 273.57,161.975 273.57,159.445 C273.57,156.738 271.68,154.695 269.13,154.695 C266.66,154.695 265,156.648 265,159.445 L265,162.18 C265,162.172 264.92,162.166 264.91,162.16 C263.14,161.168 262.11,159.359 261.96,156.775 C261.97,156.537 261.98,156.293 261.98,156.039 C261.98,155.486 261.5,155.039 260.95,155.039 C260.4,155.039 259.96,155.486 259.96,156.039 C259.96,156.293 260,156.539 260.01,156.779 C259.92,158.287 260,159.531 259,160.504 L259,159.445 C259,156.641 256.29,154.896 253.84,154.896 C251.18,154.896 248.69,157.252 248.69,159.848 C248.69,162.602 250.91,165 253.44,165 L253.45,165 C254.71,165 256,164.844 257,164.475 L257,175 L251,175 L251,174.324 C251,174.023 250.81,173.738 250.57,173.549 C247.98,171.438 242,165.914 242,159 C242,154.34 243.28,139 261,139 C278.59,139 280,154.34 280,159 C280,165.408 276.97,170.449 271.46,173.445 L271.46,173.445 Z M259,175 L259,163.402 C260,162.832 260.48,162.021 261.05,160.877 C261.84,162.41 262.92,163.342 263.93,163.904 C264.25,164.086 265,164.244 265,164.381 L265,175 L259,175 L259,175 Z M271,180.669 L257.05,177 L270.89,177 C270.93,177 270.96,176.982 271,176.977 L271,180.669 L271,180.669 Z M257,162.303 C255,163.031 254.02,163.031 253.51,163.031 C251.96,163.031 250.72,161.328 250.72,159.863 C250.72,158.369 252.28,156.904 253.84,156.904 C255.34,156.904 257,157.926 257,159.445 L257,162.303 L257,162.303 Z M271,185.361 C271,185.916 270.94,186.462 270.84,187 L267.21,187 L251,182.433 L251,177.478 L270.69,182.654 C270.77,182.678 270.86,182.688 270.94,182.688 C270.96,182.688 270.98,182.679 271,182.678 L271,185.361 L271,185.361 Z M261.11,195 C256.98,195 253.36,192.416 251.81,189 L266.93,189 L266.94,189.002 C267.03,189.027 267.12,189.039 267.21,189.039 C267.29,189.039 267.37,189.02 267.45,189 L270.23,189 C268.74,192.416 265.24,195 261.11,195 L261.11,195 Z M251,185.361 L251,184.512 L259.83,187 L251.17,187 C251.06,186.462 251,185.916 251,185.361 L251,185.361 Z M261.03,137 C245.47,137 240,148.43 240,159 C240,166.449 246,172.293 249,174.795 L249,185.361 C249,191.504 254.5,197 261.11,197 C267.73,197 273,191.504 273,185.361 L273,174.908 C279,171.545 282,165.867 282,159 C282,148.43 276.48,137 261.03,137 L261.03,137 Z" id="Fill-40" sketch:type="MSShapeGroup"></path>
            </g>
        </g>
    </g>
</svg>