<?xml version="1.0" encoding="UTF-8" standalone="no"?>
<svg width="60px" height="52px" viewBox="0 0 60 52" version="1.1" xmlns="http://www.w3.org/2000/svg" xmlns:xlink="http://www.w3.org/1999/xlink" xmlns:sketch="http://www.bohemiancoding.com/sketch/ns">
    <!-- Generator: Sketch 3.3 (11970) - http://www.bohemiancoding.com/sketch -->
    <title>Fill 34</title>
    <desc>Created with Sketch.</desc>
    <defs></defs>
    <g id="Welcome" stroke="none" stroke-width="1" fill="none" fill-rule="evenodd" sketch:type="MSPage">
        <g id="Desktop-HD" sketch:type="MSArtboardGroup" transform="translate(-628.000000, -2938.000000)" fill="#0A0B09">
            <g id="etapy" sketch:type="MSLayerGroup" transform="translate(151.000000, 2797.000000)">
                <path d="M535,147 L479,147 L479,145.193 C479,143.984 479.984,143 481.193,143 L532.807,143 C534.016,143 535,143.984 535,145.193 L535,147 L535,147 Z M479,149 L535,149 L535,173 L479,173 L479,149 Z M535,178.807 C535,180.016 534.016,181 532.807,181 L481.193,181 C479.984,181 479,180.016 479,178.807 L479,175 L535,175 L535,178.807 L535,178.807 Z M499.27,191 L500.973,183 L510.006,183 L511.709,191 L499.27,191 L499.27,191 Z M532.807,141 L481.193,141 C478.881,141 477,142.881 477,145.193 L477,178.807 C477,181.119 478.881,183 481.193,183 L498.928,183 L497.225,191 L495,191 C494.447,191 494,191.447 494,192 C494,192.553 494.447,193 495,193 L512.943,193 C512.955,192.998 512.971,192.998 512.982,193 L517,193 C517.553,193 518,192.553 518,192 C518,191.447 517.553,191 517,191 L513.753,191 L512.05,183 L532.807,183 C535.119,183 537,181.119 537,178.807 L537,145.193 C537,142.881 535.119,141 532.807,141 L532.807,141 Z" id="Fill-34" sketch:type="MSShapeGroup"></path>
            </g>
        </g>
    </g>
</svg>