<?xml version="1.0" encoding="UTF-8" standalone="no"?>
<svg width="28px" height="28px" viewBox="0 0 28 28" version="1.1" xmlns="http://www.w3.org/2000/svg" xmlns:xlink="http://www.w3.org/1999/xlink" xmlns:sketch="http://www.bohemiancoding.com/sketch/ns">
    <!-- Generator: Sketch 3.3 (11970) - http://www.bohemiancoding.com/sketch -->
    <title>instagram</title>
    <desc>Created with Sketch.</desc>
    <defs></defs>
    <g id="Welcome" stroke="none" stroke-width="1" fill="none" fill-rule="evenodd" sketch:type="MSPage">
        <g id="Desktop-HD" sketch:type="MSArtboardGroup" transform="translate(-740.000000, -4662.000000)" stroke="#9B9B9B" stroke-width="1.499" stroke-linecap="round" stroke-linejoin="round">
            <g id="contact" sketch:type="MSLayerGroup" transform="translate(-1.000000, 3817.000000)">
                <g id="social" transform="translate(606.500000, 846.000000)" sketch:type="MSShapeGroup">
                    <path d="M141.796267,0.46100445 L158.750699,0.46100445 C160.676585,0.46100445 161.649414,1.43441454 161.649414,3.36030117 L161.649414,23.2122848 C161.649414,25.1381714 160.676585,26.111 158.750699,26.111 L138.898134,26.111 C136.972829,26.111 136,25.1381714 136,23.2122848 L136,3.36030117 C136,1.60013848 136.786171,0.647661941 138.380028,0.502871551 L141.796267,0.46100445 Z M138.380028,0.502871551 L138.380028,5.78219665 L138.380028,0.502871551 Z M155.397842,12.5100071 C155.211766,11.0196547 154.589574,9.73573023 153.492307,8.63904479 C152.16826,7.31383475 150.574403,6.65152048 148.731088,6.65152048 C146.888935,6.65152048 145.295078,7.31383475 143.99022,8.63904479 C142.892953,9.73573023 142.250991,11.0196547 142.064915,12.5100071 C142.044563,12.7786544 142.024211,13.0682352 142.024211,13.379331 C142.003859,15.2220649 142.66501,16.8153407 143.99022,18.1196172 C145.295078,19.4244751 146.888935,20.0867894 148.731088,20.0867894 C150.574403,20.0867894 152.16826,19.4244751 153.492307,18.1196172 C154.797165,16.8153407 155.45948,15.2220649 155.45948,13.379331 C155.438546,13.0682352 155.417612,12.7786544 155.397842,12.5100071 L155.397842,12.5100071 Z M140.098905,0.46100445 L141.796267,0.46100445 L140.098905,0.46100445 Z M138.380028,0.502871551 C138.524819,0.481938 138.711476,0.46100445 138.898134,0.46100445 L140.098905,0.46100445 L138.380028,0.502871551 Z M141.796267,0.46100445 L141.796267,5.78219665 L141.796267,0.46100445 Z M140.098905,0.46100445 L140.098905,5.78219665 L140.098905,0.46100445 Z M145.58524,16.5054078 C146.43363,17.3543796 147.48903,17.7881693 148.710735,17.7881693 C149.931859,17.7881693 150.966907,17.3543796 151.836812,16.5054078 C152.561346,15.7808744 152.996298,14.9109691 153.099803,13.9381405 C153.120155,13.7520645 153.140507,13.5659885 153.140507,13.379331 C153.140507,12.1576257 152.706136,11.1016444 151.836812,10.2329021 C150.966907,9.36299674 149.931859,8.92804408 148.710735,8.94897763 C147.48903,8.92804408 146.43363,9.36299674 145.58524,10.2329021 C144.715916,11.1016444 144.280382,12.1576257 144.280382,13.379331 C144.280382,13.5659885 144.301316,13.7520645 144.321668,13.9381405 C144.425173,14.9109691 144.860125,15.7808744 145.58524,16.5054078 L145.58524,16.5054078 Z" id="instagram"></path>
                </g>
            </g>
        </g>
    </g>
</svg>