<?xml version="1.0" encoding="UTF-8" standalone="no"?>
<svg width="60px" height="54px" viewBox="0 0 60 54" version="1.1" xmlns="http://www.w3.org/2000/svg" xmlns:xlink="http://www.w3.org/1999/xlink" xmlns:sketch="http://www.bohemiancoding.com/sketch/ns">
    <!-- Generator: Sketch 3.3 (11970) - http://www.bohemiancoding.com/sketch -->
    <title>direction65</title>
    <desc>Created with Sketch.</desc>
    <defs>
        <path id="path-1" d="M0.0232198142,0.199690402 L58.8235294,0.199690402 L58.8235294,53.2182663 L0.0232198142,53.2182663 L0.0232198142,0.199690402 Z"></path>
    </defs>
    <g id="Welcome" stroke="none" stroke-width="1" fill="none" fill-rule="evenodd" sketch:type="MSPage">
        <g id="Desktop-HD" sketch:type="MSArtboardGroup" transform="translate(-618.000000, -2922.000000)">
            <g id="direction65" sketch:type="MSLayerGroup" transform="translate(618.500000, 2922.000000)">
                <mask id="mask-2" sketch:name="Clip 2" fill="white">
                    <use xlink:href="#path-1"></use>
                </mask>
                <g id="Clip-2"></g>
                <path d="M32.619582,53.0185759 L27.7414861,53.0185759 C27.3134675,53.0185759 26.9674923,52.6726006 26.9674923,52.244582 L26.9674923,25.3560372 L14.8041796,25.3560372 C14.5971362,25.3560372 14.3974458,25.2728328 14.250774,25.124613 L10.4717492,21.2666409 C10.1768576,20.9659443 10.1768576,20.4837461 10.4717492,20.1830495 L14.250774,16.3250774 C14.4458204,16.126935 14.7298762,16.0483746 14.994582,16.1164861 L26.9674923,16.1164861 L26.9674923,13.9562693 L6.87074303,13.9562693 C6.67414861,13.9562693 6.48684211,13.8819659 6.34326625,13.749226 L0.246517028,8.05921053 C0.0890092879,7.91408669 0,7.70820433 0,7.49380805 C0,7.27902477 0.0890092879,7.0750774 0.246517028,6.92840557 L6.34326625,1.23955108 C6.54721362,1.04914861 6.83591331,0.984133127 7.1006192,1.06578947 L26.9674923,1.06578947 L26.9674923,0.973684211 C26.9674923,0.546052632 27.3134675,0.199690402 27.7414861,0.199690402 L32.619582,0.199690402 C33.0476006,0.199690402 33.3935759,0.546052632 33.3935759,0.973684211 L33.3935759,5.74458204 L53.4903251,5.74458204 C53.7306502,5.74458204 53.9574303,5.85487616 54.1041022,6.04527864 L58.498452,11.7341331 C58.7147833,12.0135449 58.7147833,12.4020898 58.498452,12.6818885 L54.1041022,18.370356 C53.9044118,18.625774 53.5688854,18.7318111 53.2619969,18.6366099 L33.3935759,18.6366099 L33.3935759,52.244582 C33.3935759,52.6726006 33.0476006,53.0185759 32.619582,53.0185759 L32.619582,53.0185759 Z M28.5154799,51.4705882 L31.8455882,51.4705882 L31.8455882,1.74767802 L28.5154799,1.74767802 L28.5154799,51.4705882 Z M15.129257,23.8080495 L26.9674923,23.8080495 L26.9674923,17.6644737 L15.1064241,17.6644737 L12.1087461,20.7240712 L15.129257,23.8080495 Z M33.3935759,17.0886223 L53.1381579,17.0886223 L56.9082817,12.2070433 L53.1106811,7.29256966 L33.3935759,7.29256966 L33.3935759,17.0886223 Z M7.17608359,12.4082817 L26.9690402,12.4082817 L26.9690402,2.61377709 L7.13815789,2.61377709 L1.90789474,7.49380805 L7.17608359,12.4082817 Z" id="Fill-1" fill="#000000" sketch:type="MSShapeGroup" mask="url(#mask-2)"></path>
            </g>
        </g>
    </g>
</svg>