<?xml version="1.0" encoding="UTF-8" standalone="no"?>
<svg width="37px" height="61px" viewBox="0 0 37 61" version="1.1" xmlns="http://www.w3.org/2000/svg" xmlns:xlink="http://www.w3.org/1999/xlink" xmlns:sketch="http://www.bohemiancoding.com/sketch/ns">
    <!-- Generator: Sketch 3.3 (11970) - http://www.bohemiancoding.com/sketch -->
    <title>Fill 61</title>
    <desc>Created with Sketch.</desc>
    <defs></defs>
    <g id="Welcome" stroke="none" stroke-width="1" fill="none" fill-rule="evenodd" sketch:type="MSPage">
        <g id="Desktop-HD" sketch:type="MSArtboardGroup" transform="translate(-861.000000, -2928.000000)" fill="#0A0B09">
            <g id="etapy" sketch:type="MSLayerGroup" transform="translate(151.000000, 2797.000000)">
                <path d="M733.945897,149.421491 C735.047897,149.421491 735.945897,150.318491 735.945897,151.421491 C735.945897,152.523491 735.047897,153.421491 733.945897,153.421491 C732.841897,153.421491 731.945897,152.523491 731.945897,151.421491 C731.945897,150.318491 732.841897,149.421491 733.945897,149.421491 L733.945897,149.421491 Z M729.945897,151.421491 C729.945897,153.626491 731.739897,155.421491 733.945897,155.421491 C736.151897,155.421491 737.945897,153.626491 737.945897,151.421491 C737.945897,149.216491 736.151897,147.421491 733.945897,147.421491 C731.739897,147.421491 729.945897,149.216491 729.945897,151.421491 L729.945897,151.421491 Z M728.945897,139.421491 C730.047897,139.421491 730.945897,140.319491 730.945897,141.421491 C730.945897,142.523491 730.047897,143.421491 728.945897,143.421491 C727.841897,143.421491 726.945897,142.523491 726.945897,141.421491 C726.945897,140.319491 727.841897,139.421491 728.945897,139.421491 L728.945897,139.421491 Z M728.945897,145.421491 C731.151897,145.421491 732.945897,143.626491 732.945897,141.421491 C732.945897,139.216491 731.151897,137.421491 728.945897,137.421491 C726.739897,137.421491 724.945897,139.216491 724.945897,141.421491 C724.945897,143.626491 726.739897,145.421491 728.945897,145.421491 L728.945897,145.421491 Z M746.886897,189.821491 L736.945897,170.788491 L736.945897,159.421491 L738.945897,159.421491 C739.496897,159.421491 739.945897,158.974491 739.945897,158.421491 C739.945897,157.868491 739.496897,157.421491 738.945897,157.421491 L735.945897,157.421491 C735.390897,157.421491 734.945897,157.732491 734.945897,158.284491 L734.945897,171.034491 C734.945897,171.196491 734.984897,171.423491 735.058897,171.566491 L744.347897,189.421491 L712.718897,189.421491 L722.812897,171.597491 C722.898897,171.446491 722.945897,171.208491 722.945897,171.034491 L722.945897,158.284491 C722.945897,157.732491 722.496897,157.421491 721.945897,157.421491 L718.945897,157.421491 C718.390897,157.421491 717.945897,157.868491 717.945897,158.421491 C717.945897,158.974491 718.390897,159.421491 718.945897,159.421491 L720.945897,159.421491 L720.945897,170.771491 L710.129897,189.824491 C709.953897,190.133491 709.957897,190.548491 710.134897,190.855491 C710.312897,191.163491 710.642897,191.421491 711.000897,191.421491 L746.000897,191.421491 C746.347897,191.421491 746.672897,191.169491 746.855897,190.870491 C747.035897,190.571491 747.047897,190.132491 746.886897,189.821491 L746.886897,189.821491 Z M735.388897,184.421491 L721.724897,184.421491 L728.769897,173.071491 C728.882897,172.905491 728.945897,172.656491 728.945897,172.455491 C728.945897,172.639491 728.996897,172.853491 729.089897,173.009491 L735.388897,184.421491 L735.388897,184.421491 Z M729.945897,169.421491 L727.945897,169.421491 C727.390897,169.421491 726.945897,169.732491 726.945897,170.284491 L726.945897,172.112491 L719.004897,184.754491 C718.793897,185.061491 718.771897,185.491491 718.945897,185.819491 C719.117897,186.148491 719.457897,186.421491 719.828897,186.421491 L737.168897,186.421491 C737.531897,186.421491 737.863897,186.157491 738.041897,185.843491 C738.218897,185.526491 738.211897,185.073491 738.023897,184.765491 L730.945897,172.140491 L730.945897,170.284491 C730.945897,169.732491 730.496897,169.421491 729.945897,169.421491 L729.945897,169.421491 Z M737.945897,133.421491 C739.047897,133.421491 739.945897,134.319491 739.945897,135.421491 C739.945897,136.523491 739.047897,137.421491 737.945897,137.421491 C736.841897,137.421491 735.945897,136.523491 735.945897,135.421491 C735.945897,134.319491 736.841897,133.421491 737.945897,133.421491 L737.945897,133.421491 Z M737.945897,139.421491 C740.151897,139.421491 741.945897,137.626491 741.945897,135.421491 C741.945897,133.216491 740.151897,131.421491 737.945897,131.421491 C735.739897,131.421491 733.945897,133.216491 733.945897,135.421491 C733.945897,137.626491 735.739897,139.421491 737.945897,139.421491 L737.945897,139.421491 Z" id="Fill-61" sketch:type="MSShapeGroup"></path>
            </g>
        </g>
    </g>
</svg>