<?xml version="1.0" encoding="UTF-8" standalone="no"?>
<svg width="60px" height="60px" viewBox="0 0 60 60" version="1.1" xmlns="http://www.w3.org/2000/svg" xmlns:xlink="http://www.w3.org/1999/xlink" xmlns:sketch="http://www.bohemiancoding.com/sketch/ns">
    <!-- Generator: Sketch 3.3 (11970) - http://www.bohemiancoding.com/sketch -->
    <title>Fill 7</title>
    <desc>Created with Sketch.</desc>
    <defs></defs>
    <g id="Welcome" stroke="none" stroke-width="1" fill="none" fill-rule="evenodd" sketch:type="MSPage">
        <g id="Desktop-HD" sketch:type="MSArtboardGroup" transform="translate(-160.000000, -2930.000000)" fill="#0A0B09">
            <g id="etapy" sketch:type="MSLayerGroup" transform="translate(151.000000, 2797.000000)">
                <path d="M24,150 C24,150.552 24.448,151 25,151 L51,151 C51.553,151 52,150.552 52,150 C52,149.448 51.553,149 51,149 L25,149 C24.448,149 24,149.448 24,150 L24,150 Z M24,144 C24,144.552 24.448,145 25,145 L36.271,145 C36.824,145 37.271,144.552 37.271,144 C37.271,143.448 36.824,143 36.271,143 L25,143 C24.448,143 24,143.448 24,144 L24,144 Z M51,155 L25,155 C24.448,155 24,155.448 24,156 C24,156.552 24.448,157 25,157 L51,157 C51.553,157 52,156.552 52,156 C52,155.448 51.553,155 51,155 L51,155 Z M56,139 L56,185.25 C56,188.027 54.254,191 51.25,191 L50,191 C47.792,191 46,189.208 46,187 C46,184.792 47.792,183 50,183 C50.55,183 51,182.551 51,182 C51,181.449 50.55,181 50,181 L20,181 L20,140.25 C20,137.292 23.484,135 26.248,135 L57.902,135 C56.896,136.07 56,137.48 56,139 L56,139 Z M45.532,191 L15,191 C12.792,191 11,189.208 11,187 C11,184.792 12.792,183 15,183 L45.532,183 C44.58,184.063 44,185.465 44,187 C44,188.535 44.58,189.938 45.532,191 L45.532,191 Z M63,133 C62.911,133 62.831,133.029 62.749,133.051 C62.667,133.029 62.587,133 62.498,133 L26.248,133 C22.475,133 18,135.978 18,140.25 L18,181 L15,181 C11.691,181 9,183.691 9,187 C9,190.309 11.691,193 15,193 L51.25,193 C55.054,193 58,189.449 58,185.25 L58,139 C58,136.87 60.111,135 62.363,135 C62.473,135 62.582,134.97 62.689,134.938 C62.789,134.97 62.89,135 63,135 C65.206,135 67,136.794 67,139 C67,141.206 65.206,143 63,143 C62.448,143 62,143.448 62,144 C62,144.552 62.448,145 63,145 C66.309,145 69,142.308 69,139 C69,135.692 66.309,133 63,133 L63,133 Z M51,167 L25,167 C24.448,167 24,167.449 24,168 C24,168.551 24.448,169 25,169 L51,169 C51.553,169 52,168.551 52,168 C52,167.449 51.553,167 51,167 L51,167 Z M51,173 L25,173 C24.448,173 24,173.449 24,174 C24,174.551 24.448,175 25,175 L51,175 C51.553,175 52,174.551 52,174 C52,173.449 51.553,173 51,173 L51,173 Z M51,161 L25,161 C24.448,161 24,161.448 24,162 C24,162.552 24.448,163 25,163 L51,163 C51.553,163 52,162.552 52,162 C52,161.448 51.553,161 51,161 L51,161 Z" id="Fill-7" sketch:type="MSShapeGroup"></path>
            </g>
        </g>
    </g>
</svg>