<?xml version="1.0" encoding="UTF-8" standalone="no"?>
<svg width="60px" height="60px" viewBox="0 0 60 60" version="1.1" xmlns="http://www.w3.org/2000/svg" xmlns:xlink="http://www.w3.org/1999/xlink" xmlns:sketch="http://www.bohemiancoding.com/sketch/ns">
    <!-- Generator: bin/sketchtool 1.4 (305) - http://www.bohemiancoding.com/sketch -->
    <title>Fill 33</title>
    <desc>Created with bin/sketchtool.</desc>
    <defs></defs>
    <g id="Welcome" stroke="none" stroke-width="1" fill="none" fill-rule="evenodd" sketch:type="MSPage">
        <g id="Desktop-HD" sketch:type="MSArtboardGroup" transform="translate(-741.000000, -997.000000)" fill="#0A0B09">
            <g id="chym_zaimaimos" sketch:type="MSLayerGroup" transform="translate(0.000000, 838.000000)">
                <path d="M755,199 L757,199 L757,209 L755,209 L755,199 Z M754,211 L758,211 C758.552,211 759,210.552 759,210 L759,198 C759,197.448 758.552,197 758,197 L754,197 C753.448,197 753,197.448 753,198 L753,210 C753,210.552 753.448,211 754,211 L754,211 Z M779,199 L781,199 L781,209 L779,209 L779,199 Z M778,197 C777.448,197 777,197.448 777,198 L777,210 C777,210.552 777.448,211 778,211 L782,211 C782.552,211 783,210.552 783,210 L783,198 C783,197.448 782.552,197 782,197 L778,197 L778,197 Z M747,215 L747,159 L745,159 L745,215 L741,215 L741,217 L745,217 L745,219 L747,219 L747,217 L801,217 L801,215 L747,215 L747,215 Z M767,189 L769,189 L769,209 L767,209 L767,189 Z M766,187 C765.448,187 765,187.448 765,188 L765,210 C765,210.552 765.448,211 766,211 L770,211 C770.552,211 771,210.552 771,210 L771,188 C771,187.448 770.552,187 770,187 L766,187 L766,187 Z M791,187 L793,187 L793,209 L791,209 L791,187 Z M789,186 L789,210 C789,210.552 789.448,211 790,211 L794,211 C794.552,211 795,210.552 795,210 L795,186 C795,185.448 794.552,185 794,185 L790,185 C789.448,185 789,185.448 789,186 L789,186 Z M756,195 C756.292,195 756.583,194.872 756.781,194.625 L768.113,180.46 L779.324,190.737 C779.532,190.928 779.806,191.021 780.093,190.996 C780.374,190.97 780.63,190.826 780.8,190.6 L792.8,174.6 C793.131,174.158 793.042,173.531 792.6,173.2 C792.158,172.869 791.532,172.959 791.2,173.4 L779.862,188.517 L768.676,178.263 C768.472,178.076 768.203,177.982 767.923,178.003 C767.647,178.024 767.392,178.159 767.219,178.375 L755.219,193.375 C754.874,193.807 754.944,194.436 755.375,194.781 C755.56,194.928 755.78,195 756,195 L756,195 Z" id="Fill-33" sketch:type="MSShapeGroup"></path>
            </g>
        </g>
    </g>
</svg>