<?xml version="1.0" encoding="UTF-8" standalone="no"?>
<svg width="61px" height="37px" viewBox="0 0 61 37" version="1.1" xmlns="http://www.w3.org/2000/svg" xmlns:xlink="http://www.w3.org/1999/xlink" xmlns:sketch="http://www.bohemiancoding.com/sketch/ns">
    <!-- Generator: bin/sketchtool 1.4 (305) - http://www.bohemiancoding.com/sketch -->
    <title>Fill 41 Copy</title>
    <desc>Created with bin/sketchtool.</desc>
    <defs></defs>
    <g id="Welcome" stroke="none" stroke-width="1" fill="none" fill-rule="evenodd" sketch:type="MSPage">
        <g id="Desktop-HD" sketch:type="MSArtboardGroup" transform="translate(-1085.000000, -2934.000000)" fill="#181818">
            <path d="M1145.48207,2934.69809 C1145.47022,2934.6404 1145.45008,2934.58732 1145.42757,2934.53309 C1145.40862,2934.49039 1145.38967,2934.45001 1145.36716,2934.41193 C1145.35768,2934.39693 1145.35294,2934.37962 1145.34346,2934.36462 C1145.32096,2934.33578 1145.29134,2934.31616 1145.26646,2934.29078 C1145.23329,2934.25385 1145.20249,2934.22039 1145.16577,2934.19154 C1145.11957,2934.15577 1145.071,2934.13154 1145.02124,2934.10616 C1144.98333,2934.08654 1144.94424,2934.06462 1144.90159,2934.05077 C1144.83999,2934.03 1144.7772,2934.02308 1144.71205,2934.01615 C1144.68006,2934.01269 1144.65163,2934 1144.61964,2934 L1144.61727,2934 L1086.38703,2934.09923 C1086.04467,2934.10039 1085.73192,2934.29308 1085.58502,2934.5954 C1085.43813,2934.89771 1085.48433,2935.25656 1085.7023,2935.51388 L1095.96018,2947.65951 L1094.75539,2958.92244 C1094.72341,2959.22822 1094.85727,2959.52707 1095.1096,2959.70823 C1095.26716,2959.82131 1095.45197,2959.87785 1095.63914,2959.87785 C1095.75524,2959.87785 1095.8737,2959.85592 1095.98506,2959.80977 L1103.10243,2956.87432 L1111.94347,2970.59384 C1112.09155,2970.82577 1112.34388,2970.97577 1112.62464,2970.99654 C1112.64952,2970.99885 1112.67084,2971 1112.6969,2971 C1112.94923,2971 1113.19446,2970.89384 1113.36268,2970.70692 L1145.2866,2935.43772 C1145.29963,2935.42157 1145.30556,2935.40195 1145.31859,2935.3858 C1145.34583,2935.34887 1145.37071,2935.30964 1145.39204,2935.26926 C1145.41928,2935.21964 1145.44297,2935.17233 1145.45956,2935.11925 C1145.47259,2935.07887 1145.48088,2935.03964 1145.48681,2934.99694 C1145.49628,2934.93694 1145.49865,2934.87925 1145.49628,2934.8204 C1145.49391,2934.79617 1145.50339,2934.7754 1145.49865,2934.75117 C1145.49628,2934.73155 1145.48444,2934.71771 1145.48207,2934.69809 L1145.48207,2934.69809 Z M1088.26825,2935.82658 L1137.86122,2935.74119 L1097.20406,2946.40872 L1088.26825,2935.82658 L1088.26825,2935.82658 Z M1097.7028,2948.07029 L1130.82796,2939.3805 L1100.86226,2951.22036 C1100.63481,2951.25382 1100.42275,2951.36921 1100.27823,2951.5619 L1096.84393,2956.09661 L1097.7028,2948.07029 L1097.7028,2948.07029 Z M1098.42544,2956.92394 L1100.97006,2953.56502 L1102.14642,2955.39044 L1098.42544,2956.92394 L1098.42544,2956.92394 Z M1112.81655,2968.69341 L1102.37506,2952.48962 L1141.46018,2937.04737 L1112.81655,2968.69341 L1112.81655,2968.69341 Z" id="Fill-41-Copy" sketch:type="MSShapeGroup"></path>
        </g>
    </g>
</svg>