<?xml version="1.0" encoding="UTF-8" standalone="no"?>
<svg width="65px" height="54px" viewBox="0 0 65 54" version="1.1" xmlns="http://www.w3.org/2000/svg" xmlns:xlink="http://www.w3.org/1999/xlink" xmlns:sketch="http://www.bohemiancoding.com/sketch/ns">
    <!-- Generator: bin/sketchtool 1.4 (305) - http://www.bohemiancoding.com/sketch -->
    <title>IDE</title>
    <desc>Created with bin/sketchtool.</desc>
    <defs></defs>
    <g id="Welcome" stroke="none" stroke-width="1" fill="none" fill-rule="evenodd" sketch:type="MSPage">
        <g id="Desktop-HD" sketch:type="MSArtboardGroup" transform="translate(-162.000000, -1005.000000)">
            <g id="chym_zaimaimos" sketch:type="MSLayerGroup" transform="translate(0.000000, 838.000000)">
                <rect id="Rectangle-11" fill="#F7F7F7" sketch:type="MSShapeGroup" x="0" y="0" width="1440" height="584"></rect>
                <g id="IDE" transform="translate(163.000000, 168.000000)" sketch:type="MSShapeGroup">
                    <path d="M0,0.968671245 L62.0380859,0.968671245 L62.0380859,52 L0,52 L0,0.968671245 Z M0,6.97235698 L62.0380859,6.97235698 L0,6.97235698 Z" id="Stroke-1" stroke="#000000" stroke-width="2"></path>
                    <path d="M4.8529793,3.85344224 C4.8529793,4.38777027 4.41971332,4.82103626 3.88538529,4.82103626 C3.35105725,4.82103626 2.91879188,4.38777027 2.91879188,3.85344224 C2.91879188,3.31911421 3.35105725,2.88684884 3.88538529,2.88684884 C4.41971332,2.88684884 4.8529793,3.31911421 4.8529793,3.85344224" id="Fill-2" fill="#000000"></path>
                    <path d="M7.85482217,3.85344224 C7.85482217,4.38777027 7.42155618,4.82103626 6.88722815,4.82103626 C6.35290012,4.82103626 5.92063475,4.38777027 5.92063475,3.85344224 C5.92063475,3.31911421 6.35290012,2.88684884 6.88722815,2.88684884 C7.42155618,2.88684884 7.85482217,3.31911421 7.85482217,3.85344224" id="Fill-3" fill="#000000"></path>
                    <path d="M10.856665,3.85344224 C10.856665,4.38777027 10.4233991,4.82103626 9.88907102,4.82103626 C9.35474299,4.82103626 8.92247762,4.38777027 8.92247762,3.85344224 C8.92247762,3.31911421 9.35474299,2.88684884 9.88907102,2.88684884 C10.4233991,2.88684884 10.856665,3.31911421 10.856665,3.85344224" id="Fill-4" fill="#000000"></path>
                    <path d="M47.6642617,35.2006867 L47.6642617,36.8597052 L41.7656404,34.3041363 L41.7656404,32.8852652 L47.6642617,30.3286957 L47.6642617,31.9997216 L43.5537382,33.5826934 L47.6642617,35.2006867" id="Fill-5" fill="#000000"></path>
                    <path d="M51.3105001,30.2936742 L49.6694927,37.0538244 C49.6144589,37.2759607 49.5664294,37.4520688 49.5254042,37.5811481 C49.4843791,37.7102273 49.422341,37.8102888 49.3382894,37.8833336 C49.2542378,37.9553778 49.1321628,37.9913999 48.9710639,37.9913999 C48.5728194,37.9913999 48.3736972,37.8192943 48.3736972,37.475083 C48.3736972,37.3860283 48.4127212,37.1608901 48.4907691,36.8006689 L50.1267734,30.0415194 C50.2128263,29.6812983 50.2948766,29.4351472 50.3729246,29.3020655 C50.4509725,29.1699844 50.6030658,29.1029432 50.8302053,29.1029432 C51.0253251,29.1029432 51.1754172,29.1499721 51.2784805,29.2440298 C51.3825444,29.3380876 51.4335757,29.4671668 51.4335757,29.6312676 C51.4335757,29.7523419 51.3925505,29.972477 51.3105001,30.2936742" id="Fill-6" fill="#000000"></path>
                    <path d="M58.0356288,34.3041363 L52.1370075,36.8717126 L52.1370075,35.2126941 L56.2595384,33.5947008 L52.1370075,31.9997216 L52.1370075,30.3517099 L58.0356288,32.896272 L58.0356288,34.3041363" id="Fill-7" fill="#000000"></path>
                    <path d="M4.00245716,10.9748141 L58.0356288,10.9748141 L58.0356288,13.976657 L4.00245716,13.976657 L4.00245716,10.9748141 Z" id="Fill-8" fill="#000000"></path>
                    <path d="M4.00245716,16.9784999 L58.0356288,16.9784999 L58.0356288,19.9803427 L4.00245716,19.9803427 L4.00245716,16.9784999 Z" id="Fill-9" fill="#000000"></path>
                    <path d="M4.00245716,22.9821856 L58.0356288,22.9821856 L58.0356288,25.9840285 L4.00245716,25.9840285 L4.00245716,22.9821856 Z" id="Fill-10" fill="#000000"></path>
                </g>
            </g>
        </g>
    </g>
</svg>