<?xml version="1.0" encoding="UTF-8" standalone="no"?>
<svg width="60px" height="60px" viewBox="0 0 60 60" version="1.1" xmlns="http://www.w3.org/2000/svg" xmlns:xlink="http://www.w3.org/1999/xlink" xmlns:sketch="http://www.bohemiancoding.com/sketch/ns">
    <!-- Generator: Sketch 3.3 (11970) - http://www.bohemiancoding.com/sketch -->
    <title>Fill 33</title>
    <desc>Created with Sketch.</desc>
    <defs></defs>
    <g id="Welcome" stroke="none" stroke-width="1" fill="none" fill-rule="evenodd" sketch:type="MSPage">
        <g id="Desktop-HD" sketch:type="MSArtboardGroup" transform="translate(-796.000000, -997.000000)" fill="#0A0B09">
            <g id="chym_zaimaimos" sketch:type="MSLayerGroup" transform="translate(0.000000, 838.000000)">
                <path d="M810,199 L812,199 L812,209 L810,209 L810,199 Z M809,211 L813,211 C813.552,211 814,210.552 814,210 L814,198 C814,197.448 813.552,197 813,197 L809,197 C808.448,197 808,197.448 808,198 L808,210 C808,210.552 808.448,211 809,211 L809,211 Z M834,199 L836,199 L836,209 L834,209 L834,199 Z M833,197 C832.448,197 832,197.448 832,198 L832,210 C832,210.552 832.448,211 833,211 L837,211 C837.552,211 838,210.552 838,210 L838,198 C838,197.448 837.552,197 837,197 L833,197 L833,197 Z M802,215 L802,159 L800,159 L800,215 L796,215 L796,217 L800,217 L800,219 L802,219 L802,217 L856,217 L856,215 L802,215 L802,215 Z M822,189 L824,189 L824,209 L822,209 L822,189 Z M821,187 C820.448,187 820,187.448 820,188 L820,210 C820,210.552 820.448,211 821,211 L825,211 C825.552,211 826,210.552 826,210 L826,188 C826,187.448 825.552,187 825,187 L821,187 L821,187 Z M846,187 L848,187 L848,209 L846,209 L846,187 Z M844,186 L844,210 C844,210.552 844.448,211 845,211 L849,211 C849.552,211 850,210.552 850,210 L850,186 C850,185.448 849.552,185 849,185 L845,185 C844.448,185 844,185.448 844,186 L844,186 Z M811,195 C811.292,195 811.583,194.872 811.781,194.625 L823.113,180.46 L834.324,190.737 C834.532,190.928 834.806,191.021 835.093,190.996 C835.374,190.97 835.63,190.826 835.8,190.6 L847.8,174.6 C848.131,174.158 848.042,173.531 847.6,173.2 C847.158,172.869 846.532,172.959 846.2,173.4 L834.862,188.517 L823.676,178.263 C823.472,178.076 823.203,177.982 822.923,178.003 C822.647,178.024 822.392,178.159 822.219,178.375 L810.219,193.375 C809.874,193.807 809.944,194.436 810.375,194.781 C810.56,194.928 810.78,195 811,195 L811,195 Z" id="Fill-33" sketch:type="MSShapeGroup"></path>
            </g>
        </g>
    </g>
</svg>