<?xml version="1.0" encoding="UTF-8" standalone="no"?>
<svg width="54px" height="57px" viewBox="0 0 54 57" version="1.1" xmlns="http://www.w3.org/2000/svg" xmlns:xlink="http://www.w3.org/1999/xlink" xmlns:sketch="http://www.bohemiancoding.com/sketch/ns">
    <!-- Generator: bin/sketchtool 1.4 (305) - http://www.bohemiancoding.com/sketch -->
    <title>Pen Paper</title>
    <desc>Created with bin/sketchtool.</desc>
    <defs></defs>
    <g id="Welcome" stroke="none" stroke-width="1" fill="none" fill-rule="evenodd" sketch:type="MSPage">
        <g id="Desktop-HD" sketch:type="MSArtboardGroup" transform="translate(-850.000000, -2918.000000)">
            <g id="Pen-Paper" sketch:type="MSLayerGroup" transform="translate(851.000000, 2919.000000)">
                <path d="M0,0 L34,0 L34,51 L0,51 L0,0 Z M34,4 L34,51 L4,51 L4,55 L38,55 L38,4 L34,4 L34,4 Z" id="Stroke-1" stroke="#000000" stroke-width="2" sketch:type="MSShapeGroup"></path>
                <path d="M4,4 L30,4 L30,7 L4,7 L4,4 Z" id="Fill-2" fill="#000000" sketch:type="MSShapeGroup"></path>
                <path d="M4,10 L30,10 L30,13 L4,13 L4,10 Z" id="Fill-3" fill="#000000" sketch:type="MSShapeGroup"></path>
                <path d="M4,16 L30,16 L30,19 L4,19 L4,16 Z" id="Fill-4" fill="#000000" sketch:type="MSShapeGroup"></path>
                <path d="M4,22 L30,22 L30,25 L4,25 L4,22 Z" id="Fill-5" fill="#000000" sketch:type="MSShapeGroup"></path>
                <path d="M4,28 L30,28 L30,31 L4,31 L4,28 Z" id="Fill-6" fill="#000000" sketch:type="MSShapeGroup"></path>
                <path d="M4,34 L17,34 L17,37 L4,37 L4,34 Z" id="Fill-7" fill="#000000" sketch:type="MSShapeGroup"></path>
                <path d="M4,44 L17,44 L17,47 L4,47 L4,44 Z" id="Fill-8" fill="#000000" sketch:type="MSShapeGroup"></path>
                <path d="M52,14 L49,4 L46,14 L46,55 L52,55 L52,14 L52,14 Z M46,14 L52,14 L46,14 Z" id="Stroke-9" stroke="#000000" stroke-width="2" stroke-linejoin="round" sketch:type="MSShapeGroup"></path>
            </g>
        </g>
    </g>
</svg>