<?xml version="1.0" encoding="UTF-8" standalone="no"?>
<svg width="58px" height="47px" viewBox="0 0 58 47" version="1.1" xmlns="http://www.w3.org/2000/svg" xmlns:xlink="http://www.w3.org/1999/xlink" xmlns:sketch="http://www.bohemiancoding.com/sketch/ns">
    <!-- Generator: Sketch 3.3 (11970) - http://www.bohemiancoding.com/sketch -->
    <title>Camera</title>
    <desc>Created with Sketch.</desc>
    <defs></defs>
    <g id="Welcome" stroke="none" stroke-width="1" fill="none" fill-rule="evenodd" sketch:type="MSPage">
        <g id="Desktop-HD" sketch:type="MSArtboardGroup" transform="translate(-1092.000000, -1002.000000)" stroke="#000000">
            <g id="chym_zaimaimos" sketch:type="MSLayerGroup" transform="translate(0.000000, 838.000000)">
                <g id="Camera" transform="translate(1092.000000, 164.500000)" sketch:type="MSShapeGroup">
                    <path d="M43.4450629,7.30187774 L37.6175157,1.42520954 C36.8369735,0.638088046 35.3092534,0 34.2058068,0 L23.7209437,0 C22.6172511,0 21.0926208,0.635220258 20.3092347,1.42520954 L14.4816876,7.30187774 L1.99841223,7.30187774 C0.894719632,7.30187774 0,8.18843392 0,9.3001097 L0,44.2469937 C0,45.3505868 0.886710875,46.2452257 1.99396987,46.2452257 L55.9327806,46.2452257 C57.0340198,46.2452257 57.9267505,45.3586695 57.9267505,44.2469937 L57.9267505,9.3001097 C57.9267505,8.19651666 57.0317848,7.30187774 55.9283382,7.30187774 L43.4450629,7.30187774 Z" id="Rectangle-71" stroke-width="2"></path>
                    <rect id="Rectangle-75" x="7.24084381" y="14.6037555" width="7.24084381" height="4.86791849" rx="2"></rect>
                    <ellipse id="Oval-10" stroke-width="2" cx="28.9633752" cy="25.5565721" rx="12.068073" ry="12.1697962"></ellipse>
                </g>
            </g>
        </g>
    </g>
</svg>